<?xml version="1.0" encoding="iso-8859-1"?>
<!-- Generator: Adobe Illustrator 19.0.0, SVG Export Plug-In . SVG Version: 6.00 Build 0)  -->
<svg version="1.1" id="Layer_1" xmlns="http://www.w3.org/2000/svg" xmlns:xlink="http://www.w3.org/1999/xlink" x="0px" y="0px"
	 viewBox="0 0 30 30" style="enable-background:new 0 0 30 30;" xml:space="preserve">
<path d="M28,13.55V7c0-1.379-1.121-2.5-2.5-2.5h-21C3.121,4.5,2,5.621,2,7v6.55C0.86,13.783,0,14.792,0,16v3v3v3
	c0,0.276,0.224,0.5,0.5,0.5S1,25.276,1,25v-2.5h28V25c0,0.276,0.224,0.5,0.5,0.5S30,25.276,30,25v-3v-3v-3
	C30,14.792,29.14,13.783,28,13.55z M3,7c0-0.827,0.673-1.5,1.5-1.5h21C26.327,5.5,27,6.173,27,7v6.5h-2.167
	c0.17-0.362,0.213-0.773,0.114-1.172l-0.612-2.499C24.144,9.047,23.457,8.5,22.663,8.5h-3.94c-0.951,0-1.724,0.785-1.724,1.75v2.5
	c0,0.269,0.065,0.522,0.173,0.75h-4.345c0.107-0.228,0.172-0.481,0.172-0.75v-2.5c0-0.965-0.774-1.75-1.724-1.75h-3.94
	c-0.794,0-1.482,0.547-1.672,1.329l-0.612,2.499c-0.099,0.4-0.056,0.81,0.114,1.172H3V7z M18,12.75v-2.5
	c0-0.413,0.325-0.75,0.724-0.75v0.001h3.942c0.331,0,0.619,0.232,0.701,0.565v0.001l0.612,2.5c0.056,0.231,0.005,0.47-0.141,0.656
	C23.7,13.399,23.495,13.5,23.276,13.5h-4.552C18.324,13.5,18,13.163,18,12.75z M6.023,12.566l0.612-2.5v-0.001
	C6.717,9.732,7.005,9.5,7.336,9.5V9.499h3.942c0.4,0,0.724,0.337,0.724,0.75v2.5c0,0.413-0.325,0.75-0.724,0.75H6.726
	c-0.219,0-0.424-0.1-0.562-0.277C6.017,13.037,5.966,12.797,6.023,12.566z M1,16c0-0.827,0.673-1.5,1.5-1.5h4.224h4.552h7.447h4.552
	H27.5c0.827,0,1.5,0.673,1.5,1.5v2.5H1V16z M1,19.5h28v2H1V19.5z"/>
</svg>
