<?xml version="1.0" encoding="iso-8859-1"?>
<!-- Generator: Adobe Illustrator 19.0.0, SVG Export Plug-In . SVG Version: 6.00 Build 0)  -->
<svg version="1.1" id="Layer_1" xmlns="http://www.w3.org/2000/svg" xmlns:xlink="http://www.w3.org/1999/xlink" x="0px" y="0px"
	 viewBox="0 0 30 30" style="enable-background:new 0 0 30 30;" xml:space="preserve">
<g>
	<path d="M27.499,14.5h2c0.276,0,0.5-0.224,0.5-0.5s-0.224-0.5-0.5-0.5h-2c-0.276,0-0.5,0.224-0.5,0.5S27.223,14.5,27.499,14.5z"/>
	<path d="M24.863,8.136c0.128,0,0.256-0.049,0.353-0.146l1.415-1.414c0.195-0.195,0.195-0.512,0-0.707s-0.512-0.195-0.707,0
		l-1.415,1.414c-0.195,0.195-0.195,0.512,0,0.707C24.608,8.087,24.736,8.136,24.863,8.136z"/>
	<path d="M18.499,5.5c0.276,0,0.5-0.224,0.5-0.5V3c0-0.276-0.224-0.5-0.5-0.5s-0.5,0.224-0.5,0.5v2
		C17.999,5.276,18.223,5.5,18.499,5.5z"/>
	<path d="M11.781,7.99c0.098,0.097,0.226,0.146,0.354,0.146s0.256-0.049,0.353-0.146c0.195-0.195,0.195-0.512,0-0.707l-1.415-1.414
		c-0.195-0.195-0.512-0.195-0.707,0s-0.195,0.512,0,0.707L11.781,7.99z"/>
	<path d="M25.991,14.181c0.003-0.06,0.008-0.119,0.008-0.18c0-4.136-3.364-7.5-7.5-7.5c-1.912,0-3.712,0.72-5.106,2.018
		c-0.095-0.003-0.188-0.02-0.284-0.02c-4.578,0-8.476,3.407-9.199,7.979C1.591,17.203,0,19.368,0,21.857
		C0,24.969,2.486,27.5,5.543,27.5h17.652c0.06,0,0.115-0.007,0.166-0.018c3.722-0.191,6.638-3.258,6.638-6.982
		C29.999,17.712,28.356,15.306,25.991,14.181z M18.499,7.5c3.514,0,6.386,2.803,6.497,6.291c-0.027-0.008-0.056-0.011-0.084-0.018
		c-0.253-0.072-0.513-0.128-0.777-0.172c-0.077-0.013-0.153-0.025-0.23-0.035c-0.297-0.039-0.598-0.066-0.906-0.066
		c-0.536,0-1.071,0.063-1.595,0.185c-0.018-0.035-0.042-0.066-0.06-0.101c-0.169-0.328-0.355-0.642-0.558-0.944
		c-0.076-0.113-0.161-0.217-0.241-0.326c-0.16-0.218-0.325-0.431-0.502-0.632c-0.099-0.113-0.203-0.22-0.307-0.328
		c-0.173-0.179-0.352-0.351-0.538-0.515c-0.12-0.107-0.241-0.211-0.367-0.311c-0.177-0.14-0.36-0.27-0.546-0.396
		c-0.149-0.102-0.296-0.208-0.451-0.301c-0.137-0.082-0.28-0.15-0.42-0.225c-0.825-0.442-1.711-0.76-2.64-0.934
		C15.859,7.911,17.148,7.5,18.499,7.5z M23.31,26.485c-0.009,0-0.106,0.015-0.115,0.016H5.543C3.038,26.501,1,24.418,1,21.858
		c0-2.145,1.431-3.995,3.479-4.5c0.201-0.05,0.351-0.219,0.376-0.425C5.376,12.695,8.924,9.5,13.108,9.5
		c0.143,0,0.283,0.024,0.425,0.032c0.002,0,0.004,0.002,0.006,0.002c0.766,0.041,1.509,0.189,2.213,0.429
		c0.043,0.015,0.085,0.034,0.128,0.05c0.3,0.108,0.594,0.231,0.879,0.373c0.104,0.052,0.202,0.114,0.303,0.17
		c0.221,0.122,0.44,0.246,0.649,0.387c0.152,0.104,0.294,0.222,0.44,0.336c0.151,0.118,0.306,0.231,0.449,0.359
		c0.174,0.157,0.333,0.331,0.494,0.503c0.103,0.11,0.214,0.212,0.312,0.327c0.17,0.201,0.32,0.421,0.471,0.639
		c0.074,0.107,0.159,0.206,0.228,0.317c0.17,0.27,0.316,0.558,0.456,0.85c0.034,0.071,0.078,0.135,0.11,0.207
		c0.077,0.171,0.242,0.281,0.421,0.294c0.06,0.005,0.12-0.002,0.18-0.02c0.005-0.001,0.01-0.002,0.015-0.003
		c0.306-0.091,0.617-0.153,0.929-0.194c0.097-0.013,0.194-0.013,0.291-0.021c0.238-0.02,0.476-0.034,0.714-0.025
		c0.053,0.002,0.106,0.005,0.159,0.008c0.304,0.019,0.606,0.057,0.903,0.123c0.026,0.006,0.052,0.014,0.078,0.02
		c0.299,0.07,0.594,0.162,0.881,0.277c2.199,0.891,3.756,3.045,3.756,5.56C28.999,23.691,26.501,26.319,23.31,26.485z"/>
</g>
</svg>
